<?xml version="1.0" encoding="UTF-8" standalone="no"?>
<!-- Created with Inkscape (http://www.inkscape.org/) -->

<svg
   version="1.1"
   id="svg18"
   width="700.62018"
   height="670.58679"
   viewBox="0 0 700.62018 670.58679"
   sodipodi:docname="Collectify_Logo.png"
   xmlns:inkscape="http://www.inkscape.org/namespaces/inkscape"
   xmlns:sodipodi="http://sodipodi.sourceforge.net/DTD/sodipodi-0.dtd"
   xmlns="http://www.w3.org/2000/svg"
   xmlns:svg="http://www.w3.org/2000/svg">
  <defs
     id="defs22" />
  <sodipodi:namedview
     id="namedview20"
     pagecolor="#ffffff"
     bordercolor="#000000"
     borderopacity="0.25"
     inkscape:showpageshadow="2"
     inkscape:pageopacity="0.0"
     inkscape:pagecheckerboard="0"
     inkscape:deskcolor="#d1d1d1"
     showgrid="false" />
  <g
     inkscape:groupmode="layer"
     inkscape:label="Image"
     id="g24"
     transform="translate(-165.87982,-179)">
    <path
       style="fill:#000000"
       d="M 194.2697,848.98735 C 179.05252,845.83501 169.85021,836.74662 166.94408,822 c -1.48063,-7.51317 -1.39128,-59.62553 0.11181,-65.20756 3.03687,-11.27807 9.64947,-18.93276 19.86476,-22.9953 4.35263,-1.731 7.66809,-2.22641 15.07935,-2.25319 8.42404,-0.0304 10.08027,0.27122 14.62335,2.66352 10.678,5.62284 16.23014,15.55827 15.1245,27.06495 -0.61703,6.42153 -4.39122,10.25164 -11.09217,11.25651 -4.47497,0.67106 -10.55984,-0.0968 -10.76441,-1.35839 -0.0598,-0.36879 -0.2729,-3.59554 -0.47356,-7.17054 -0.42315,-7.53913 -2.41503,-10 -8.09424,-10 -5.04979,0 -6.93066,1.4104 -8.9864,6.73859 -1.6068,4.16458 -1.83707,7.89508 -1.83707,29.76141 0,13.75 0.34761,26.6327 0.77247,28.62822 0.42485,1.99552 1.86587,4.80802 3.20225,6.25 2.00355,2.16187 3.31525,2.62178 7.47753,2.62178 6.78152,0 9.04775,-2.2236 9.04775,-8.87756 0,-6.19966 1.4533,-7.431 9.35462,-7.92588 5.62077,-0.35205 6.3588,-0.15635 8.64538,2.29244 2.11238,2.26222 2.49738,3.63349 2.4831,8.84417 -0.0228,8.30798 -2.64009,14.7894 -7.73242,19.14824 -7.22227,6.182 -20.07526,9.45441 -29.48098,7.50594 z m 77.2303,-0.0682 c -11.76155,-1.17035 -22.59753,-9.21838 -26.51723,-19.69471 -3.38272,-9.04111 -4.96784,-41.20935 -2.98917,-60.66147 1.4236,-13.9953 3.73101,-20.00182 10.14926,-26.42007 6.54385,-6.54386 13.56065,-9.32073 23.85714,-9.44137 17.56459,-0.2058 29.55309,7.88419 34.56756,23.32659 1.46466,4.51055 1.84968,10.09983 2.19143,31.81304 0.55054,34.9794 -0.98693,43.38682 -9.48898,51.88887 -7.29259,7.29259 -18.43661,10.51587 -31.77001,9.18912 z m 13.62389,-25.73174 c 2.2108,-2.47431 2.81509,-4.35722 3.39933,-10.5919 1.04359,-11.13666 0.0305,-46.49409 -1.43535,-50.09547 C 284.8615,757.03021 282.13077,755 277,755 c -5.70169,0 -8.40723,2.45597 -9.91458,9 -1.42074,6.16801 -1.40381,52.78821 0.0206,56.87441 2.36363,6.78031 12.82621,8.1234 18.01783,2.31296 z m 270.90035,25.26692 c -11.0732,-3.09167 -18.59255,-9.30108 -22.27291,-18.39277 C 531.57406,824.68295 531.5,823.41445 531.5,791.5 c 0,-32.43554 0.0407,-33.10101 2.38002,-38.90548 5.33315,-13.233 17.20725,-20.84772 32.61998,-20.9188 12.34353,-0.0569 21.29831,4.55677 26.52207,13.66477 2.53339,4.41715 2.96051,6.20979 2.96855,12.45917 C 596.00557,769.43071 592.82191,773 582.43256,773 575.68453,773 575,772.43459 575,766.86089 c 0,-7.51848 -2.09685,-11.60083 -6.37042,-12.40256 -5.37021,-1.00746 -8.84133,0.58194 -11.12958,5.09613 -1.85587,3.6612 -2,5.92739 -2,31.44554 0,30.44025 0.5287,33.92924 5.53363,36.51739 3.3931,1.75464 5.60397,1.8535 9.67931,0.43283 C 574.34,826.68582 576,823.41111 576,817.52033 c 0,-5.08464 0.7749,-5.55726 9.27817,-5.65883 6.99862,-0.0836 9.40786,1.25878 10.66971,5.94494 1.17783,4.37411 -0.002,13.46329 -2.33209,17.96964 -5.29007,10.22987 -23.89128,16.50336 -37.59155,12.67821 z M 398.5,847.22128 c -4.73246,-0.62824 -5.77459,-2.02692 -4.96629,-6.66552 1.38697,-7.95948 1.70021,-90.55699 0.37104,-97.83907 -0.97101,-5.31987 -0.97618,-7.0458 -0.024,-8 1.31236,-1.3151 21.48968,-2.34249 25.62439,-1.30475 3.28183,0.82369 3.7937,3.38787 1.82688,9.15173 -1.42686,4.18148 -1.74416,10.56731 -2.075,41.75997 C 418.79591,827.80196 418.41474,826 428.07271,826 c 6.73665,0 10.72693,-1.60997 15.70774,-6.33763 2.65419,-2.51929 3.60872,-2.90555 5,-2.02328 1.45397,0.92203 1.71955,2.77165 1.71955,11.97568 0,14.32531 -0.5314,16.06746 -5.26006,17.24447 -3.59579,0.89503 -40.56772,1.18141 -46.73994,0.36204 z m 226.2099,-0.65424 c -2.06353,-2.06352 -2.06014,-1.9588 -0.29829,-9.23627 1.94116,-8.01814 3.15764,-79.36152 1.38345,-81.13571 -1.92572,-1.92572 -6.35746,-1.38795 -12.20787,1.48136 C 605.85175,761.47024 605,760.54298 605,748.3279 c 0,-6.55052 0.47199,-10.33994 1.54675,-12.4183 l 1.54674,-2.99108 30.99066,0.29074 c 26.24101,0.24618 31.13583,0.52063 31.93794,1.79074 0.52101,0.825 0.95418,6.08036 0.9626,11.67857 0.0119,7.93489 -0.33108,10.52497 -1.55612,11.75 -2.07782,2.07782 -2.62091,2.01299 -8.38501,-1.00097 -2.84764,-1.48899 -6.10393,-2.43662 -7.73159,-2.25 L 651.5,755.5 l -0.26226,37.9899 c -0.21939,31.78044 -0.0151,38.71534 1.25,42.42814 1.66258,4.87939 1.9748,9.67806 0.68169,10.47725 -0.45682,0.28232 -6.66236,0.82119 -13.7901,1.19748 -11.4669,0.60537 -13.15648,0.48723 -14.66943,-1.02573 z m 63.7901,0.93621 c -0.55,-0.18057 -2.28286,-0.61263 -3.85081,-0.96013 -2.73496,-0.60615 -2.82192,-0.80272 -2.13997,-4.83747 0.39096,-2.31311 0.88802,-23.55565 1.10458,-47.20565 0.36028,-39.34513 0.2359,-43.63748 -1.46341,-50.5 -1.02143,-4.125 -1.65468,-8.05026 -1.40722,-8.7228 0.68481,-1.86112 5.99271,-2.49968 17.62975,-2.12092 13.68721,0.4455 14.83872,1.30953 12.05653,9.04657 -1.73501,4.82491 -1.93191,8.96646 -2.20858,46.45567 -0.28955,39.23335 -0.20827,41.44196 1.73768,47.21845 2.38917,7.09213 2.49461,8.50205 0.74445,9.95455 -1.20189,0.99749 -19.95577,2.40952 -22.203,1.67173 z m 126.69973,-0.16474 c -4.8026,-0.68792 -5.54393,-3.54321 -3.06516,-11.80558 1.70623,-5.6873 1.95632,-8.93561 1.68278,-21.85651 l -0.3213,-15.17642 -10.33526,-23 c -5.68439,-12.65 -12.19333,-26.45701 -14.46432,-30.68225 -4.06287,-7.5591 -4.09906,-7.71541 -2.25778,-9.75 1.71199,-1.89173 2.99687,-2.06775 15.09385,-2.06775 9.36888,0 13.51903,0.36431 14.23977,1.25 0.55946,0.6875 1.20237,4.85 1.42869,9.25 0.32659,6.34962 1.23064,10.06297 4.38226,18 2.18393,5.5 4.54913,10 5.25601,10 1.62392,0 8.8467,-21.70645 10.11828,-30.40822 0.51503,-3.52452 1.52278,-6.78013 2.23944,-7.23469 0.71665,-0.45455 6.09066,-0.83336 11.94223,-0.84178 9.00957,-0.013 11.00082,0.27813 13,1.90045 l 2.36078,1.91575 -3.67735,6.83425 c -2.02254,3.75883 -8.43504,17.96829 -14.25,31.57657 L 838,799.98467 l 0.0435,13.75766 c 0.024,7.56672 0.48855,15.78267 1.03244,18.25767 2.08758,9.49962 2.21073,12.51716 0.56653,13.88172 -1.6347,1.35668 -18.23466,2.34604 -24.44279,1.45679 z m -489.59021,-2.21749 c -1.603,-1.77129 -1.58323,-2.32652 0.34502,-9.68834 1.8879,-7.20779 2.04211,-10.66426 2.00191,-44.87102 -0.0424,-36.11768 -0.27531,-39.93325 -3.03973,-49.80582 -1.90691,-6.81017 -1.23189,-7.19147 13.42436,-7.58301 10.80873,-0.28876 12.52029,-0.10567 14.57637,1.55924 l 2.32963,1.88642 -1.62354,7.13816 C 352.28776,749.62963 352,757.27478 352,786.8907 v 35.99589 l 2.22251,1.55671 c 2.63174,1.84334 11.88411,2.09471 15.09323,0.41005 1.20134,-0.63066 3.66242,-2.43066 5.46906,-4 4.13165,-3.58898 6.96279,-3.70721 7.81137,-0.32622 1.10094,4.38651 -0.0748,21.78173 -1.63719,24.22287 -1.43309,2.23909 -1.5666,2.25 -27.54454,2.25 -24.27403,0 -26.2237,-0.13175 -27.80492,-1.87898 z m 136.41842,0.41265 c -0.82251,-0.99107 -1.01476,-3.34092 -0.59315,-7.25 0.34308,-3.18102 0.87308,-22.5045 1.17777,-42.94108 0.5128,-34.3959 0.20014,-42.54918 -2.14144,-55.84259 -1.04821,-5.95081 -0.94827,-5.97466 26.24117,-6.26155 18.68472,-0.19716 25.40324,0.0555 27.28771,1.02603 3.23755,1.66745 5.11635,8.81556 4.7621,18.1179 -0.21445,5.63114 -0.63087,7.12645 -2.29052,8.22485 -1.81202,1.19925 -2.65927,0.9143 -7.94186,-2.67099 -5.76875,-3.91526 -6.09837,-4.0064 -13.47158,-3.72485 L 487.5,754.5 l -0.79717,11.3407 c -1.04127,14.8132 -1.22616,14.58917 11.4634,13.88994 C 510.80097,779.03442 511,779.22925 511,792.29356 c 0,11.48931 -0.65267,12.26209 -8.5,10.0643 -8.07586,-2.2618 -12.06576,-2.66063 -14.35584,-1.43501 C 486.1558,801.98698 486,802.85258 486,812.83518 c 0,7.03931 0.4153,11.18012 1.2,11.96482 1.58767,1.58767 14.63678,1.53945 17.52059,-0.0647 1.22133,-0.67939 4.07084,-2.55961 6.33226,-4.17826 4.9819,-3.5659 7.10385,-2.77025 8.13898,3.05183 0.9917,5.57781 -0.81865,19.32133 -2.83917,21.55398 -1.53143,1.69221 -3.69249,1.83719 -27.3852,1.83719 -21.38205,0 -25.92792,-0.24743 -26.93952,-1.46633 z m 262.97732,-0.52384 c -0.78881,-1.4739 -0.64142,-3.61405 0.56814,-8.25 1.41946,-5.44043 1.57461,-11.49578 1.18527,-46.25983 -0.39011,-34.83221 -0.68286,-40.80686 -2.26598,-46.24532 -1.44586,-4.96695 -1.58439,-6.758 -0.67678,-8.75 L 724.95712,733 h 24.86645 c 22.42812,0 25.01769,0.1716 26.40877,1.75 3.1331,3.55499 4.99171,20.09433 2.73248,24.31574 -1.3358,2.49597 -5.16039,2.48063 -7.4323,-0.0298 -2.81373,-3.10915 -9.50531,-5.18988 -15.58184,-4.84516 L 750.5,754.5 l -0.27973,11.51821 c -0.35798,14.74024 0.087,15.4977 8.92336,15.19003 3.49601,-0.12173 7.56455,-0.4727 9.04122,-0.77993 1.93381,-0.40234 3.29012,0.0467 4.84857,1.60511 1.94422,1.94422 2.12836,3.02417 1.81515,10.64577 -0.29106,7.08269 -0.67853,8.72413 -2.34857,9.94932 -1.15612,0.84816 -2.84388,1.19043 -4,0.81116 -1.1,-0.36085 -4.61831,-1.14817 -7.81846,-1.74958 -9.02913,-1.69689 -9.12373,-1.54823 -9.4937,14.91717 -0.27312,12.15491 -0.0295,14.80825 1.94764,21.21157 1.93691,6.27305 2.05296,7.4497 0.81217,8.23469 -0.79621,0.50372 -7.39432,0.92275 -14.66247,0.93117 -12.17811,0.0141 -13.29837,-0.14082 -14.27992,-1.97486 z M 430.5,701.55516 c -2.2,-0.72108 -8.275,-3.3365 -13.5,-5.81205 -8.64887,-4.09775 -75.26834,-35.30597 -94.5,-44.26899 -4.4,-2.05065 -15.23889,-7.22619 -24.08642,-11.50121 -17.32514,-8.3713 -20.8199,-11.21504 -25.60698,-20.83679 L 270.5,614.5 V 427 c 0,-153.62431 0.2407,-188.18009 1.33226,-191.26427 0.73275,-2.07035 3.07589,-5.97012 5.20698,-8.66616 6.46585,-8.17991 12.07739,-10.23942 42.46076,-15.5837 14.3,-2.5153 34.55,-6.15311 45,-8.08403 10.45,-1.93091 39.925,-7.32636 65.5,-11.98989 25.575,-4.66352 51.13534,-9.36401 56.80076,-10.44554 5.66542,-1.08152 12.6144,-1.96641 15.44216,-1.96641 2.82777,0 32.16743,4.71781 65.19924,10.48402 95.94448,16.74859 120.7473,21.29365 125.81545,23.05539 5.57828,1.93905 12.59364,8.37389 15.91433,14.59742 L 711.5,231.5 711.7623,419 c 0.29955,214.11808 1.15114,194.16901 -8.71168,204.0748 -3.41455,3.42942 -7.28237,6.20333 -10.05062,7.20805 -2.475,0.89829 -30.15,9.12516 -61.5,18.28193 -31.35,9.15677 -65.775,19.27222 -76.5,22.47879 -30.38817,9.08546 -97.94756,29.03244 -103.5,30.55848 -6.2091,1.70652 -15.71511,1.6853 -21,-0.0469 z m 70,-30.87349 c 76.35418,-22.70781 127.37535,-37.80873 159.17593,-47.11184 15.49676,-4.53351 29.37184,-9.02634 30.83352,-9.98407 5.81544,-3.81042 5.49069,7.56729 5.489,-192.30364 -0.001,-172.97297 -0.10439,-183.9868 -1.75,-187.26219 -2.65917,-5.29273 -6.95502,-7.55834 -17.96114,-9.4726 -5.38302,-0.93626 -14.73731,-2.57573 -20.78731,-3.64327 -13.43079,-2.36991 -134.24334,-23.32891 -144,-24.98164 -9.58272,-1.62327 -11.33382,-1.49119 -33,2.48892 -10.45,1.91969 -55,10.05742 -99,18.08385 -44,8.02643 -81.05642,14.85836 -82.34761,15.18206 -1.29118,0.32371 -4.05933,2.21689 -6.15145,4.20707 -2.91695,2.77484 -3.95373,4.66738 -4.44672,8.11709 -0.35359,2.47423 -0.51044,86.20868 -0.34856,186.07657 l 0.29434,181.57797 2.8149,3.69039 c 3.1695,4.15528 4.89033,5.08752 37.71805,20.43337 12.90688,6.03353 38.09205,17.82948 55.96705,26.21321 49.36114,23.15137 50.39246,23.63382 52,24.32569 4.3534,1.87365 15.84967,-0.87088 65.5,-15.63694 z m -80,-8.54269 c -7.15,-3.19637 -16.15,-7.32188 -20,-9.16781 -3.85,-1.84593 -26.79423,-12.66441 -50.98718,-24.04108 -32.20877,-15.14608 -44.52615,-21.40672 -46,-23.3807 -1.99658,-2.67411 -2.01491,-4.09191 -2.27123,-175.70939 -0.2535,-169.72128 -0.22127,-173.09751 1.69376,-177.42676 1.65606,-3.74379 2.38894,-4.41324 4.83144,-4.41324 3.31512,0 39.66724,8.15385 61.73321,13.84688 8.25,2.1285 27.32524,7.1055 42.38942,11.06 l 27.38942,7.19001 7.11058,-1.59744 c 3.91082,-0.87859 8.91058,-2.08493 11.11058,-2.68076 l 4,-1.08332 -6.5,-1.88489 c -3.575,-1.0367 -11.45,-3.23031 -17.5,-4.87471 -6.05,-1.6444 -16.4,-4.58685 -23,-6.53878 -13.05112,-3.85983 -57.13797,-15.22892 -70,-18.05155 l -8,-1.75564 19,-3.24914 c 10.45,-1.78702 30.475,-5.33956 44.5,-7.89454 14.025,-2.55498 30.225,-5.49371 36,-6.53053 5.775,-1.03681 20.625,-3.73256 33,-5.99056 36.54294,-6.66779 34.56234,-6.68097 74.5,0.49591 11,1.97672 30.35,5.3724 43,7.54596 12.65,2.17355 27.95,4.87947 34,6.01315 6.05,1.13369 13.475,2.46052 16.5,2.94853 7.46583,1.20442 33.72636,5.81338 37.75,6.62547 3.56535,0.7196 4.23021,1.96698 1.5,2.81427 -0.9625,0.29869 -28.975,5.97677 -62.25,12.61793 -33.275,6.64117 -62.3,12.49088 -64.5,12.99937 -2.2,0.50848 -14.125,2.98747 -26.5,5.50886 -46.29043,9.43163 -77.5236,16.62601 -80.69909,18.58857 -1.76005,1.08777 -4.23528,3.64258 -5.5005,5.67736 L 434.5,303.5 434,485.72528 433.5,667.95055 Z M 394,535.5 c 0,-0.15731 -0.6,-0.51626 -1.33333,-0.79767 -0.73334,-0.28141 -1.33334,0.0775 -1.33334,0.79767 0,0.72013 0.6,1.07908 1.33334,0.79767 C 393.4,536.01626 394,535.65731 394,535.5 Z m 71.72917,-274.10417 c -0.33229,-0.33229 -1.1948,-0.36781 -1.91667,-0.0789 -0.79773,0.31922 -0.56078,0.55618 0.60417,0.60416 1.05416,0.0434 1.64479,-0.19293 1.3125,-0.52522 z m -132.20271,-4.2027 c -0.30789,-0.30789 -1.11479,-6.4e-4 -1.79313,0.68278 -0.98026,0.98762 -0.8654,1.10248 0.5598,0.5598 0.98622,-0.37553 1.54122,-0.93469 1.23333,-1.24258 z m 116.70478,386.44053 0.26876,-22.08593 25,-7.57348 c 13.75,-4.16541 27.11938,-8.30517 29.70974,-9.19945 l 4.70973,-1.62597 23.79027,11.02999 c 13.08464,6.0665 26.26526,12.14187 29.29026,13.50082 l 5.5,2.47084 -21,6.35972 c -11.55,3.49784 -38.22094,11.5009 -59.26876,17.78456 l -38.26875,11.42484 z m 127.16752,-18.03689 c -0.32526,-0.84763 -0.43555,-19.73493 -0.24507,-41.97179 L 577.5,543.19433 563.75,536.37569 c -7.5625,-3.75024 -13.75,-7.09184 -13.75,-7.42577 0,-0.33392 4.75612,-1.6051 10.56916,-2.82484 l 10.56916,-2.2177 11.36107,5.13505 c 6.24859,2.82428 12.11224,5.68432 13.03035,6.35566 1.50972,1.10393 1.68367,5.30144 1.81977,43.91301 l 0.15049,42.6924 -5,1.4348 c -2.75,0.78913 -6.35,1.73017 -8,2.09119 -1.65,0.36102 -3.78972,0.8706 -4.75493,1.13241 -1.00329,0.27213 -2.00821,-0.18406 -2.34631,-1.06513 z M 584,607 c 0,-0.55 -0.19844,-1 -0.44098,-1 -0.24254,0 -0.7191,0.45 -1.05902,1 -0.33992,0.55 -0.14148,1 0.44098,1 0.58246,0 1.05902,-0.45 1.05902,-1 z m 23.87406,8.25 c -1.18047,-3.01579 -0.58344,-80.97914 0.65056,-84.95308 0.62195,-2.00292 -0.46113,-2.77354 -11.92026,-8.48148 -6.9324,-3.45311 -12.60049,-6.51173 -12.59576,-6.79692 0.005,-0.28518 5.23824,-1.75623 11.63002,-3.26899 l 11.62144,-2.75048 9.61997,4.14775 c 15.17023,6.54081 13.61997,0.45387 13.61997,53.47727 0,25.0604 -0.38415,45.80236 -0.85368,46.09324 C 628.43649,613.46683 611.77696,618 610.23228,618 c -0.70498,0 -1.76618,-1.2375 -2.35822,-2.75 z M 626,570 c 0,-0.55 -0.47656,-1 -1.05902,-1 -0.58246,0 -0.7809,0.45 -0.44098,1 0.33992,0.55 0.81648,1 1.05902,1 0.24254,0 0.44098,-0.45 0.44098,-1 z m 15,9.58212 v -29.41788 l 8.00685,-2.66652 c 4.40377,-1.46659 7.77616,-3.03981 7.49419,-3.49603 -0.28196,-0.45623 -3.68299,-2.07335 -7.55784,-3.59359 -3.87484,-1.52024 -7.24431,-3.08629 -7.4877,-3.48011 -0.24339,-0.39381 1.36688,-1.44 3.57839,-2.32487 3.87031,-1.5486 4.35405,-1.50744 12.91501,1.09873 l 8.8941,2.70758 0.4014,6.04529 c 0.40545,6.10621 1.09933,34.38831 1.20064,48.93711 l 0.055,7.89182 -11,3.83175 c -6.05,2.10746 -12.2375,3.84364 -13.75,3.85817 L 641,609 Z M 645,577 c 0,-0.55 -0.47656,-1 -1.05902,-1 -0.58246,0 -0.7809,0.45 -0.44098,1 0.33992,0.55 0.81648,1 1.05902,1 0.24254,0 0.44098,-0.45 0.44098,-1 z m 4.72917,-39.60417 c -0.33229,-0.33229 -1.1948,-0.36781 -1.91667,-0.0789 -0.79773,0.31922 -0.56078,0.55618 0.60417,0.60416 1.05416,0.0434 1.64479,-0.19293 1.3125,-0.52522 z M 450,511.73008 V 495.227 l 2.75,-0.46154 c 1.5125,-0.25384 7.51442,-1.74194 13.33761,-3.30687 l 10.58761,-2.84534 10.96889,2.70976 c 13.91101,3.43657 24.46332,4.2468 35.85589,2.75309 22.28857,-2.92231 36.57244,-10.13042 52.9628,-26.72675 4.69241,-4.75139 13.02527,-15.31356 13.71585,-17.38529 0.19728,-0.59185 8.59448,2.32329 19.30199,6.70081 l 18.95279,7.74841 24.53329,-6.24463 c 13.4933,-3.43455 24.87078,-6.22754 25.28328,-6.20664 0.4125,0.0209 0.75,3.58791 0.75,7.9267 v 7.88871 l -3.54943,0.66588 c -1.95219,0.36623 -28.83969,7.42277 -59.75,15.68119 -30.91031,8.25843 -62.72557,16.74613 -70.70057,18.86157 -7.975,2.11543 -31.6,8.44815 -52.5,14.07272 -20.9,5.62456 -39.0125,10.43975 -40.25,10.70042 l -2.25,0.47395 z m 53.7601,-30.28792 c -12.05789,-2.92253 -31.45684,-15.88776 -29.21036,-19.52264 0.47054,-0.76135 0.34503,-0.97252 -0.33005,-0.55529 -2.66418,1.64655 -12.39714,-16.46496 -16.31747,-30.36423 -2.07002,-7.33913 -2.39345,-10.61688 -2.36819,-24 0.0413,-21.89667 3.73802,-37.67034 13.2669,-56.60955 18.81941,-37.40467 57.54002,-58.61607 85.93453,-47.07549 7.45103,3.02837 14.50071,7.49389 13.74948,8.70941 -0.32385,0.524 0.0437,0.70999 0.81685,0.41332 0.86996,-0.33384 4.15056,2.39981 8.60826,7.17307 8.65332,9.26589 14.8125,21.09073 18.73073,35.96062 3.42315,12.991 3.84425,34.87336 0.94157,48.92862 -4.71523,22.83198 -15.55441,42.82549 -31.10202,57.36952 -15.66867,14.65727 -30.601,21.20796 -47.97715,21.04717 -4.95175,-0.0458 -11.58614,-0.70936 -14.74308,-1.47453 z m 17.96907,-12.04633 c -0.33229,-0.33229 -1.1948,-0.36781 -1.91667,-0.0789 -0.79773,0.31922 -0.56078,0.55618 0.60417,0.60416 1.05416,0.0434 1.64479,-0.19293 1.3125,-0.52522 z m 9.39492,-29.6625 c -0.98762,-0.98026 -1.10248,-0.8654 -0.5598,0.5598 0.37553,0.98622 0.93469,1.54122 1.24258,1.23333 0.30789,-0.30789 6.4e-4,-1.11479 -0.68278,-1.79313 z M 533.5,431.8902 c 2.2,-0.58415 4.75536,-1.11984 5.67857,-1.19043 0.92322,-0.0706 1.59822,-0.41608 1.5,-0.76777 -0.0982,-0.35168 2.19549,-2.78235 5.09712,-5.40148 8.39613,-7.57869 12.45873,-15.8911 14.32641,-29.31301 1.90696,-13.70416 -2.69879,-29.00666 -10.98307,-36.49101 -4.98744,-4.50585 -13.49257,-7.22128 -19.87719,-6.34617 -10.32917,1.41577 -21.80519,11.06874 -28.03035,23.57751 -3.68918,7.41302 -3.71147,7.53323 -3.708,20 0.003,11.54811 0.21869,13.00204 2.71871,18.34465 1.49336,3.19136 3.62316,6.95675 4.73288,8.36753 1.10972,1.41078 1.72665,3.07466 1.37097,3.69752 -0.35569,0.62285 -0.28785,0.80826 0.15075,0.41201 0.43859,-0.39626 2.12613,0.22564 3.75007,1.382 6.10564,4.3476 15.35881,5.83007 23.27313,3.72865 z m -15.18386,-12.78209 c -7.64507,-3.5652 -11.87707,-12.94114 -11.05625,-24.49498 1.04863,-14.76049 9.19148,-27.18679 19.36992,-29.55925 7.08365,-1.65111 12.72163,-0.0523 17.49608,4.96166 9.56123,10.04077 9.20359,30.22989 -0.74134,41.8483 -6.74933,7.88507 -17.21127,10.90837 -25.06841,7.24427 z m 15.25615,-21.18798 c 2.78841,-3.08117 2.54136,-9.59993 -0.4558,-12.02689 -3.01899,-2.44463 -5.35062,-2.397 -7.6615,0.1565 C 521.66032,390.2428 524.39723,400 529.36807,400 c 1.27707,0 3.16897,-0.93594 4.20422,-2.07987 z M 503,324 c 0,-0.55 -0.47656,-1 -1.05902,-1 -0.58246,0 -0.7809,0.45 -0.44098,1 0.33992,0.55 0.81648,1 1.05902,1 C 502.80156,325 503,324.55 503,324 Z M 629.41005,453.27119 C 628.64374,452.729 628.28142,432.15946 628.18986,384 l -0.13024,-68.5 -10.27981,-3.78432 c -15.70062,-5.77989 -21.01052,-8.12031 -20.90837,-9.21568 0.2953,-3.16637 18.06475,0.13311 42.74971,7.9379 l 8.12115,2.56771 0.64243,5.74719 c 0.79095,7.07589 0.71639,121.10244 -0.083,127.00926 -0.5601,4.13845 -0.72511,4.30382 -5.68926,5.70198 -7.32031,2.06178 -11.94736,2.69513 -13.20237,1.80715 z m 17.27306,-55.45869 c -0.31922,-0.79773 -0.55618,-0.56078 -0.60416,0.60417 -0.0434,1.05416 0.19293,1.64479 0.52522,1.3125 0.33229,-0.33229 0.36781,-1.1948 0.0789,-1.91667 z m -13.95394,-38.41667 c -0.33229,-0.33229 -1.1948,-0.36781 -1.91667,-0.0789 -0.79773,0.31922 -0.56078,0.55618 0.60417,0.60416 1.05416,0.0434 1.64479,-0.19293 1.3125,-0.52522 z m -32,-57 c -0.33229,-0.33229 -1.1948,-0.36781 -1.91667,-0.0789 -0.79773,0.31922 -0.56078,0.55618 0.60417,0.60416 1.05416,0.0434 1.64479,-0.19293 1.3125,-0.52522 z M 659.47564,443.75 c -0.63585,-2.54356 -0.0618,-132.23371 0.59805,-135.1054 0.36376,-1.58319 -1.7308,-2.59878 -14.2763,-6.92217 -8.08644,-2.78672 -14.50444,-5.38741 -14.26224,-5.7793 1.3156,-2.12868 8.06982,-1.43905 22.46485,2.29373 8.525,2.21063 17.41557,4.44878 19.75682,4.97367 l 4.25682,0.95435 -0.25682,69.06893 -0.25682,69.06893 -7.5,1.80664 c -9.63173,2.32014 -9.85644,2.31247 -10.52436,-0.35938 z"
       id="path188" />
  </g>
</svg>
